<?xml version="1.0" encoding="UTF-8" standalone="no"?>
<!DOCTYPE svg PUBLIC "-//W3C//DTD SVG 1.1//EN" "http://www.w3.org/Graphics/SVG/1.1/DTD/svg11.dtd">
<svg width="100%" height="100%" viewBox="0 0 1334 1334" version="1.1" xmlns="http://www.w3.org/2000/svg" xmlns:xlink="http://www.w3.org/1999/xlink" xml:space="preserve" xmlns:serif="http://www.serif.com/" style="fill-rule:evenodd;clip-rule:evenodd;stroke-linejoin:round;stroke-miterlimit:2;">
    <g transform="matrix(2.66667,0,0,2.66667,666.906,246.157)">
        <g id="Layer-1" serif:id="Layer 1">
            <path d="M0,314.911C-8.646,314.911 -15.656,321.917 -15.656,330.562C-15.656,330.609 -15.646,330.65 -15.646,330.692L-175.042,330.692L-145.147,290.184L145.147,290.184L175.043,330.692L15.646,330.692C15.646,330.65 15.651,330.609 15.651,330.562C15.651,321.917 8.646,314.911 0,314.911M59.248,283.34L3.42,207.706L3.42,98.161L140.092,283.34L59.248,283.34ZM-3.425,207.706L-59.248,283.34L-140.097,283.34L-3.425,98.161L-3.425,207.706ZM-223.725,283.34L0,-19.786L223.725,283.34L148.598,283.34L0,82.002L-148.603,283.34L-223.725,283.34ZM153.648,290.184L237.281,290.184L0,-31.309L-237.281,290.184L-153.653,290.184L-188.599,337.532L-14.006,337.532C-11.435,342.676 -6.142,346.22 0,346.22C6.137,346.22 11.435,342.676 14.001,337.532L188.599,337.532L153.648,290.184Z" style="fill:white;fill-rule:nonzero;"/>
        </g>
    </g>
</svg>
