<?xml version="1.0" encoding="UTF-8" standalone="no"?>
<!DOCTYPE svg PUBLIC "-//W3C//DTD SVG 1.1//EN" "http://www.w3.org/Graphics/SVG/1.1/DTD/svg11.dtd">
<svg width="100%" height="100%" viewBox="0 0 2028 617" version="1.1" xmlns="http://www.w3.org/2000/svg" xmlns:xlink="http://www.w3.org/1999/xlink" xml:space="preserve" xmlns:serif="http://www.serif.com/" style="fill-rule:evenodd;clip-rule:evenodd;stroke-linejoin:round;stroke-miterlimit:2;">
    <g id="Layer-1" serif:id="Layer 1" transform="matrix(2.66667,0,0,2.66667,0,0)">
        <g transform="matrix(1,0,0,1,307.654,52.8783)">
            <path d="M0,22.021L4.203,20.34C3.108,28.575 9.41,40.428 19.668,40.428C31.769,40.428 40.175,26.391 29.165,14.962C23.281,8.826 16.475,5.374 10.843,-0.423C3.526,-7.901 8.154,-19.583 18.407,-19.583C24.543,-19.583 29.583,-15.298 29.583,-9.077L26.395,-7.396C26.395,-13.618 23.706,-18.407 18.407,-18.407C11.262,-18.407 8.991,-9.839 15.046,-3.532C19.497,1.176 28.408,5.465 34.458,12.771C45.554,26.138 36.648,41.604 19.668,41.604C8.154,41.604 0,32.36 0,22.021" style="fill:white;fill-rule:nonzero;"/>
        </g>
        <g transform="matrix(1,0,0,1,384.139,73.7216)">
            <path d="M0,-2.856C0,-14.961 -4.875,-21.768 -12.271,-21.768C-19.835,-21.768 -25.3,-18.494 -25.633,-2.856L0,-2.856ZM5.212,-1.342L-25.633,-1.342C-25.633,14.961 -20.088,18.912 -12.271,18.912C-5.712,18.912 -0.585,14.29 0.923,6.307L4.541,7.145C2.861,15.133 -3.699,20.426 -12.271,20.426C-22.944,20.426 -31.436,12.69 -31.436,-1.342C-31.436,-16.475 -23.029,-23.282 -12.271,-23.282C-2.775,-23.282 5.212,-16.98 5.212,-2.352L5.212,-1.342Z" style="fill:white;fill-rule:nonzero;"/>
        </g>
        <g transform="matrix(1,0,0,1,431.629,75.8257)">
            <path d="M0,-7.736L-0.086,17.564L-5.465,17.564L-5.379,-7.736C-5.379,-16.728 -8.739,-23.535 -15.385,-23.535C-21.939,-23.535 -26.728,-17.823 -26.728,-10.592L-26.728,17.564L-32.192,17.564L-32.192,-23.535L-26.728,-24.378L-26.728,-17.485C-24.796,-22.107 -20.678,-25.3 -15.385,-25.3C-5.465,-25.3 0,-17.737 0,-7.736" style="fill:white;fill-rule:nonzero;"/>
        </g>
        <g transform="matrix(1,0,0,1,439.192,65.4874)">
            <path d="M0,13.614L3.612,12.186C2.522,18.74 6.136,27.147 14.628,27.147C22.862,27.147 27.737,18.236 20.345,11.848C15.884,7.983 13.28,6.893 8.492,2.013C1.009,-5.551 5.803,-15.047 13.699,-15.047C17.902,-15.047 21.687,-13.538 22.696,-7.145L19.502,-6.055C19.502,-10.006 17.483,-13.538 13.699,-13.538C7.735,-13.538 6.302,-6.726 11.182,-2.442C15.385,1.257 20.087,3.441 23.705,7.392C32.444,16.894 26.143,28.661 14.628,28.661C5.631,28.661 -0.505,21.177 0,13.614" style="fill:white;fill-rule:nonzero;"/>
        </g>
        <g transform="matrix(1,0,0,1,504.752,73.7216)">
            <path d="M0,-2.856C0,-14.961 -4.874,-21.768 -12.271,-21.768C-19.836,-21.768 -25.3,-18.494 -25.639,-2.856L0,-2.856ZM5.212,-1.342L-25.639,-1.342C-25.639,14.961 -20.088,18.912 -12.271,18.912C-5.717,18.912 -0.591,14.29 0.923,6.307L4.536,7.145C2.855,15.133 -3.699,20.426 -12.271,20.426C-22.949,20.426 -31.437,12.69 -31.437,-1.342C-31.437,-16.475 -23.035,-23.282 -12.271,-23.282C-2.775,-23.282 5.212,-16.98 5.212,-2.352L5.212,-1.342Z" style="fill:white;fill-rule:nonzero;"/>
        </g>
        <g transform="matrix(1,0,0,1,543.582,93.3056)">
            <path d="M0,-58.835L5.465,-58.835L5.465,-1.176L31.769,-1.176L31.769,0L0,0L0,-58.835Z" style="fill:white;fill-rule:nonzero;"/>
        </g>
        <g transform="matrix(1,0,0,1,0,-99.15)">
            <path d="M591.657,192.454L586.192,192.454L586.192,150.427L591.657,150.427L591.657,192.454ZM585.435,141.269C585.435,139.416 587.035,137.822 588.967,137.822C590.819,137.822 592.414,139.416 592.414,141.269C592.414,143.201 590.819,144.801 588.967,144.801C587.035,144.801 585.435,143.201 585.435,141.269" style="fill:white;fill-rule:nonzero;"/>
        </g>
        <g transform="matrix(1,0,0,1,620.655,51.2781)">
            <path d="M0,42.027L-5.798,42.027L-19.921,0L-14.118,0L-0.671,40.347L12.69,0L14.204,0L0,42.027Z" style="fill:white;fill-rule:nonzero;"/>
        </g>
        <g transform="matrix(1,0,0,1,0,-99.15)">
            <path d="M649.488,192.454L644.023,192.454L644.023,150.427L649.488,150.427L649.488,192.454ZM643.266,141.269C643.266,139.416 644.86,137.822 646.798,137.822C648.645,137.822 650.239,139.416 650.239,141.269C650.239,143.201 648.645,144.801 646.798,144.801C644.86,144.801 643.266,143.201 643.266,141.269" style="fill:white;fill-rule:nonzero;"/>
        </g>
        <g transform="matrix(1,0,0,1,694.116,75.8257)">
            <path d="M0,-7.736L-0.086,17.564L-5.465,17.564L-5.379,-7.736C-5.379,-16.728 -8.739,-23.535 -15.38,-23.535C-21.935,-23.535 -26.728,-17.823 -26.728,-10.592L-26.728,17.564L-32.192,17.564L-32.192,-23.535L-26.728,-24.378L-26.728,-17.485C-24.795,-22.107 -20.678,-25.3 -15.38,-25.3C-5.465,-25.3 0,-17.737 0,-7.736" style="fill:white;fill-rule:nonzero;"/>
        </g>
        <g transform="matrix(1,0,0,1,733.117,79.5246)">
            <path d="M0,1.508L-0.087,-16.056C-0.087,-23.287 -6.137,-27.324 -12.69,-27.324C-19.669,-27.324 -25.215,-19.589 -25.215,-6.646C-25.215,5.545 -19.669,12.857 -12.69,12.857C-6.389,12.857 -0.419,8.32 0,1.508M5.378,-28.242L5.378,13.78C5.378,23.78 -0.591,30.593 -9.583,30.593L-9.583,29.079C-3.865,29.079 0,22.771 0,13.78L0,6.806C-2.104,11.681 -7.146,14.623 -12.69,14.623C-22.944,14.623 -30.594,6.635 -30.594,-6.646C-30.594,-20.679 -22.944,-29.085 -12.69,-29.085C-7.231,-29.085 -2.186,-26.648 -0.087,-22.198L-0.087,-27.405L5.378,-28.242Z" style="fill:white;fill-rule:nonzero;"/>
        </g>
        <g transform="matrix(1,0,0,1,307.654,141.946)">
            <path d="M0,22.02L4.203,20.34C3.108,28.575 9.41,40.427 19.668,40.427C31.769,40.427 40.175,26.39 29.165,14.961C23.281,8.826 16.475,5.379 10.843,-0.424C3.526,-7.902 8.154,-19.583 18.407,-19.583C24.543,-19.583 29.583,-15.299 29.583,-9.078L26.395,-7.397C26.395,-13.619 23.706,-18.408 18.407,-18.408C11.262,-18.408 8.991,-9.834 15.046,-3.532C19.497,1.175 28.408,5.465 34.458,12.776C45.554,26.143 36.648,41.603 19.668,41.603C8.154,41.603 0,32.359 0,22.02" style="fill:white;fill-rule:nonzero;"/>
        </g>
        <g transform="matrix(1,0,0,1,387.753,177.42)">
            <path d="M0,-16.142C0,-28.666 -5.712,-36.396 -13.7,-36.396C-18.746,-36.396 -22.944,-34.549 -25.386,-30.937L-25.386,-2.276C-22.697,1.927 -18.322,4.284 -13.7,4.284C-5.712,4.284 0,-3.452 0,-16.142M5.803,-16.142C5.803,-2.948 -2.185,5.793 -13.7,5.793C-18.155,5.793 -22.272,4.364 -25.386,1.76L-25.386,21.768L-30.846,21.768L-30.846,-37.067L-25.386,-36.23L-25.386,-34.045C-22.272,-36.482 -18.236,-37.91 -13.7,-37.91C-2.185,-37.91 5.803,-29.17 5.803,-16.142" style="fill:white;fill-rule:nonzero;"/>
        </g>
        <g transform="matrix(1,0,0,1,427.931,165.144)">
            <path d="M0,-7.649C0,-2.609 -13.619,-2.942 -17.903,1.262C-23.454,6.641 -19.836,15.632 -12.69,15.632C-2.775,15.632 0,5.379 0,-1.347L0,-7.649ZM10,15.632L10,17.232C4.793,17.232 0,16.808 0,7.145C-1.176,10.001 -4.542,17.989 -14.118,17.989C-22.777,17.989 -27.737,9.164 -23.953,1.933C-18.826,-7.902 0,-3.366 0,-10.424L0,-12.61C0,-19.921 -3.699,-24.125 -9.33,-24.125C-15.466,-24.125 -19.503,-18.912 -19.503,-11.262L-23.787,-12.105C-23.787,-20.425 -17.989,-25.638 -9.33,-25.638C-0.425,-25.638 5.464,-20.592 5.464,-12.61L5.464,7.145C5.464,12.272 4.793,15.632 10,15.632" style="fill:white;fill-rule:nonzero;"/>
        </g>
        <g transform="matrix(1,0,0,1,442.135,161.195)">
            <path d="M0,0.25C0,-12.944 7.649,-21.855 19.164,-21.855C27.565,-21.855 34.211,-16.477 35.805,-8.661L32.697,-7.818C31.012,-15.634 25.552,-20.342 19.164,-20.342C11.182,-20.342 5.797,-12.44 5.797,0.25C5.797,12.774 11.182,20.59 19.164,20.59C25.719,20.59 30.845,15.968 32.358,7.985L35.972,8.823C34.291,16.812 27.737,22.105 19.164,22.105C7.649,22.105 0,13.278 0,0.25" style="fill:white;fill-rule:nonzero;"/>
        </g>
        <g transform="matrix(1,0,0,1,515.428,162.788)">
            <path d="M0,-2.855C0,-14.96 -4.875,-21.767 -12.271,-21.767C-19.836,-21.767 -25.301,-18.493 -25.639,-2.855L0,-2.855ZM5.212,-1.341L-25.639,-1.341C-25.639,14.961 -20.093,18.913 -12.271,18.913C-5.718,18.913 -0.591,14.291 0.923,6.308L4.536,7.146C2.855,15.133 -3.699,20.426 -12.271,20.426C-22.949,20.426 -31.437,12.691 -31.437,-1.341C-31.437,-16.474 -23.035,-23.281 -12.271,-23.281C-2.775,-23.281 5.212,-16.973 5.212,-2.35L5.212,-1.341Z" style="fill:white;fill-rule:nonzero;"/>
        </g>
        <g transform="matrix(1,0,0,1,527.363,154.554)">
            <path d="M0,13.614L3.612,12.186C2.522,18.74 6.136,27.147 14.628,27.147C22.862,27.147 27.737,18.236 20.34,11.847C15.884,7.982 13.28,6.893 8.492,2.013C1.009,-5.551 5.803,-15.047 13.699,-15.047C17.902,-15.047 21.687,-13.533 22.696,-7.145L19.502,-6.055C19.502,-10 17.483,-13.533 13.699,-13.533C7.729,-13.533 6.302,-6.726 11.182,-2.437C15.38,1.261 20.087,3.446 23.705,7.397C32.444,16.893 26.143,28.661 14.628,28.661C5.631,28.661 -0.505,21.182 0,13.614" style="fill:white;fill-rule:nonzero;"/>
        </g>
        <g transform="matrix(1,0,0,1,138.009,34.8512)">
            <path d="M0,155.156C-4.257,155.156 -7.714,158.607 -7.714,162.87C-7.714,162.885 -7.708,162.907 -7.708,162.928L-86.239,162.928L-71.515,142.97L71.515,142.97L86.245,162.928L7.714,162.928L7.714,162.87C7.714,158.607 4.262,155.156 0,155.156M29.192,139.604L1.686,102.333L1.686,48.362L69.023,139.604L29.192,139.604ZM-1.686,102.333L-29.187,139.604L-69.024,139.604L-1.686,48.362L-1.686,102.333ZM-110.23,139.604L0,-9.749L110.229,139.604L73.216,139.604L0,40.401L-73.216,139.604L-110.23,139.604ZM75.707,142.97L116.913,142.97L0,-15.428L-116.908,142.97L-75.707,142.97L-92.923,166.305L-6.898,166.305C-5.631,168.834 -3.022,170.584 0,170.584C3.022,170.584 5.637,168.834 6.898,166.305L92.928,166.305L75.707,142.97Z" style="fill:white;fill-rule:nonzero;"/>
        </g>
    </g>
</svg>
